<svg id="svg" xmlns="http://www.w3.org/2000/svg" viewBox="6.670000076293945 28.330001831054688 215.3300018310547 241.3400115966797" height="241.3400115966797"><path d="M 111.33,61.67" fill="none" stroke="#2959aa" stroke-width="2"></path><path d="M 23.33,63 L 28.67,62.33 L 34.67,62.33 L 41.33,62.33 L 48,62.33 L 51.33,61.67 L 52.67,61.67" fill="none" stroke="#2959aa" stroke-width="2"></path><path d="M 29.33,59.67 L 30.67,61 L 34.67,64.33 L 36.67,67.67 L 37.33,71.67 L 36,75.67 L 33.33,79.67 L 31.33,81 L 28.67,83 L 26.67,83.67 L 31.33,83.67 L 36.67,83.67 L 42,83.67 L 47.33,84.33 L 50.67,84.33 L 53.33,84.33 L 53.33,83.67 L 52.67,83.67" fill="none" stroke="#2959aa" stroke-width="2"></path><path d="M 16.67,95.67 L 22.67,95.67 L 26,95 L 33.33,93 L 40.67,90.33 L 41.33,88.33 L 40,86.33 L 36,85 L 28.67,85 L 24.67,89 L 22.67,95 L 22.67,102.33 L 22.67,109.67 L 23.33,116.33 L 23.33,117.67 L 22,117.67 L 20.67,115 L 20.67,107 L 22,102.33 L 24.67,101 L 28,101 L 30.67,103.67 L 31.33,107.67 L 29.33,109 L 26,109 L 22.67,109 L 20.67,107 L 20,107 L 21.33,107 L 24,109 L 26.67,111.67 L 30.67,112.33 L 33.33,111 L 36,107.67" fill="none" stroke="#2959aa" stroke-width="2"></path><path d="M 33.33,100.33 L 38,101 L 40.67,100.33 L 44.67,100.33 L 46,100.33" fill="none" stroke="#2959aa" stroke-width="2"></path><path d="M 38,105.67 L 41.33,107 L 48,107.67" fill="none" stroke="#2959aa" stroke-width="2"></path><path d="M 57.33,96.33 L 56,102.33 L 56,105.67 L 56,109.67 L 56,113 L 55.33,115.67 L 55.33,116.33 L 55.33,115.67" fill="none" stroke="#2959aa" stroke-width="2"></path><path d="M 40,38.33 L 39.33,43 L 39.33,49.67 L 39.33,59 L 40,61.67 L 40,59 L 41.33,49 L 42.67,43 L 45.33,39.67 L 48,38.33 L 50.67,39.67 L 53.33,45.67 L 54,51 L 54,55.67 L 54,58.33 L 54,59.67 L 54,60.33" fill="none" stroke="#2959aa" stroke-width="2"></path><path d="M 72.67,52.33 L 69.33,55.67 L 68.67,59 L 67.33,66.33 L 68,74.33 L 69.33,79.67 L 72.67,85.67 L 74.67,88.33 L 76,91.67 L 77.33,94.33 L 78,95" fill="none" stroke="#2959aa" stroke-width="2"></path><path d="M 82,65.67 L 85.33,65 L 90,64.33 L 94,64.33 L 95.33,66.33 L 93.33,69 L 90,72.33 L 86.67,73.67 L 86.67,74.33 L 88,76.33 L 90.67,78.33 L 92.67,80.33 L 93.33,81.67 L 93.33,85 L 91.33,87 L 88.67,88.33 L 88,87.67 L 88.67,87" fill="none" stroke="#2959aa" stroke-width="2"></path><path d="M 97.33,74.33 L 106.67,71.67 L 111.33,68.33 L 114,66.33 L 114,64.33 L 110.67,63 L 106.67,62.33 L 103.33,62.33 L 100,68.33 L 99.33,74.33 L 99.33,79.67 L 100.67,83.67 L 100.67,86.33 L 101.33,87 L 101.33,85.67 L 101.33,84.33 L 101.33,82.33 L 103.33,76.33 L 105.33,73.67 L 107.33,73 L 109.33,73 L 110,73.67 L 110,74.33 L 109.33,76.33 L 108,78.33 L 105.33,80.33 L 103.33,81.67 L 103.33,82.33 L 105.33,85 L 108,87 L 112,87.67 L 115.33,87.67 L 116,87" fill="none" stroke="#2959aa" stroke-width="2"></path><path d="M 115.33,79.67 L 120.67,79.67 L 128,79.67 L 130,79.67 L 130.67,79" fill="none" stroke="#2959aa" stroke-width="2"></path><path d="M 124.67,71 L 123.33,80.33 L 123.33,85.67 L 124.67,88.33 L 128,89 L 129.33,87.67" fill="none" stroke="#2959aa" stroke-width="2"></path><path d="M 138.67,75 L 136.67,79 L 135.33,83.67 L 135.33,87.67 L 137.33,89" fill="none" stroke="#2959aa" stroke-width="2"></path><path d="M 152.67,58.33 L 154.67,62.33 L 155.33,65.67 L 156.67,73 L 157.33,81 L 154.67,88.33 L 150,97 L 146.67,99.67 L 145.33,99.67" fill="none" stroke="#2959aa" stroke-width="2"></path><path d="M 35.33,157 L 39.33,158.33 L 41.33,158.33 L 44,159 L 47.33,159.67 L 49.33,159.67 L 50,159.67" fill="none" stroke="#2959aa" stroke-width="2"></path><path d="M 38.67,163.67 L 42,163.67 L 43.33,163.67 L 45.33,163 L 49.33,163 L 54,164.33 L 54.67,164.33" fill="none" stroke="#2959aa" stroke-width="2"></path><path d="M 80.67,149.67 L 82.67,148.33 L 84.67,148.33 L 86,148.33 L 88,149 L 87.33,151 L 84.67,153 L 81.33,155 L 79.33,156.33 L 79.33,157 L 81.33,159 L 88,163.67 L 92,165.67 L 92.67,168.33 L 89.33,172.33 L 84.67,174.33 L 81.33,174.33 L 79.33,174.33 L 79.33,173.67 L 80.67,172.33" fill="none" stroke="#2959aa" stroke-width="2"></path><path d="M 98.67,134.33 L 98,139 L 98,141.67 L 98.67,149 L 99.33,155.67 L 100,159.67 L 100,161 L 100.67,160.33 L 101.33,155 L 103.33,145.67 L 104.67,142.33 L 106.67,141.67 L 110,148.33 L 112,155 L 113.33,160.33 L 113.33,162.33 L 114,159 L 114,157" fill="none" stroke="#2959aa" stroke-width="2"></path><path d="M 126,133.67 L 123.33,143 L 124,154.33 L 126,159 L 128.67,161 L 130.67,161" fill="none" stroke="#2959aa" stroke-width="2"></path><path d="M 131.33,145 L 130,149.67 L 130,151 L 130.67,153 L 132,155 L 132.67,155.67 L 133.33,153.67 L 136,150.33 L 138,149 L 139.33,149 L 139.33,150.33 L 139.33,153 L 139.33,155 L 140,156.33" fill="none" stroke="#2959aa" stroke-width="2"></path><path d="M 146,151.67 L 150,151.67 L 154,151 L 156,150.33" fill="none" stroke="#2959aa" stroke-width="2"></path><path d="M 151.33,142.33 L 148.67,147.67 L 148.67,150.33 L 150,152.33 L 151.33,154.33 L 152,155" fill="none" stroke="#2959aa" stroke-width="2"></path><path d="M 158.67,145.67 L 156.67,149.67 L 156.67,151 L 156.67,152.33 L 157.33,153.67 L 159.33,153" fill="none" stroke="#2959aa" stroke-width="2"></path><path d="M 168.67,135 L 171.33,141.67 L 170.67,149.67 L 167.33,156.33 L 163.33,161.67 L 156.67,167.67 L 152.67,170.33 L 150.67,171" fill="none" stroke="#2959aa" stroke-width="2"></path><path d="M 111.33,165.67 L 116,165.67 L 119.33,165 L 129.33,163.67 L 140,163 L 148,162.33 L 156,162.33 L 157.33,162.33 L 157.33,163.67" fill="none" stroke="#2959aa" stroke-width="2"></path><path d="M 132,174.33 L 138.67,173.67 L 142.67,175 L 144.67,177.67 L 145.33,181 L 142,187 L 137.33,190.33 L 133.33,192.33 L 131.33,193 L 132,193 L 134,193 L 139.33,193 L 144,193.67 L 148.67,193.67 L 154,189.67" fill="none" stroke="#2959aa" stroke-width="2"></path><path d="M 166.67,171.67 L 171.33,171.67 L 174.67,171.67 L 180.67,171.67 L 186.67,171.67 L 190.67,171 L 191.33,170.33" fill="none" stroke="#2959aa" stroke-width="2"></path><path d="M 181.33,159 L 179.33,164.33 L 178.67,167 L 178.67,173.67 L 180.67,177 L 184,177.67 L 186,177.67" fill="none" stroke="#2959aa" stroke-width="2"></path><path d="M 197.33,160.33 L 197.33,165.67 L 198,168.33 L 198,170.33 L 199.33,173 L 199.33,172.33 L 200.67,169 L 202.67,165.67 L 205.33,162.33 L 206.67,161.67 L 209.33,163.67 L 211.33,167.67 L 212,173.67 L 212,176.33 L 212,178.33 L 209.33,179" fill="none" stroke="#2959aa" stroke-width="2"></path><path d="M 22,231 L 27.33,231 L 30.67,232.33 L 33.33,233 L 36,235 L 37.33,236.33 L 37.33,237" fill="none" stroke="#2959aa" stroke-width="2"></path><path d="M 28.67,241.67 L 34.67,241.67 L 40,241.67 L 45.33,241" fill="none" stroke="#2959aa" stroke-width="2"></path><path d="M 68,211 L 71.33,209 L 76,209 L 79.33,210.33 L 80,213 L 77.33,217 L 73.33,218.33 L 71.33,219 L 70.67,219.67 L 71.33,219.67 L 72.67,219.67 L 76,220.33 L 78,221.67 L 78,223 L 76,225.67 L 72.67,227 L 69.33,228.33 L 68,228.33" fill="none" stroke="#2959aa" stroke-width="2"></path><path d="M 61.33,236.33 L 66,236.33 L 68,236.33 L 73.33,236.33 L 78.67,235.67 L 82.67,235.67" fill="none" stroke="#2959aa" stroke-width="2"></path><path d="M 66,243.67 L 72,247 L 72.67,249 L 72,252.33 L 69.33,255.67 L 65.33,259 L 64,259.67 L 68.67,259.67 L 73.33,259.67 L 78.67,259.67 L 82.67,257.67 L 84.67,255.67" fill="none" stroke="#2959aa" stroke-width="2"></path><path d="M 95.33,225.67 L 95.33,229 L 95.33,232.33 L 96,239 L 96.67,244.33 L 97.33,243.67 L 98,238.33 L 98.67,233 L 100,229 L 101.33,228.33 L 103.33,227.67 L 106,229.67 L 107.33,233.67 L 107.33,240.33 L 106.67,242.33 L 106,243.67 L 106,243" fill="none" stroke="#2959aa" stroke-width="2"></path><path d="M 93.33,214.33 L 91.33,218.33 L 90,224.33 L 89.33,235.67 L 89.33,242.33 L 90.67,247 L 92.67,251 L 97.33,253 L 98.67,253" fill="none" stroke="#2959aa" stroke-width="2"></path><path d="M 105.33,216.33 L 108,216.33 L 110.67,216.33 L 112,217 L 112,219 L 109.33,221.67 L 106.67,223 L 104.67,223.67 L 103.33,224.33 L 104,224.33 L 105.33,224.33 L 109.33,225 L 114,225 L 118,225.67 L 120,227" fill="none" stroke="#2959aa" stroke-width="2"></path><path d="M 114.67,241 L 114.67,241.67 L 118.67,241.67 L 124.67,241.67 L 126.67,241.67 L 128,241.67" fill="none" stroke="#2959aa" stroke-width="2"></path><path d="M 123.33,229 L 121.33,232.33 L 120.67,237 L 120,240.33 L 120,243 L 121.33,244.33 L 122,244.33" fill="none" stroke="#2959aa" stroke-width="2"></path><path d="M 133.33,231.67 L 132.67,236.33 L 132.67,239 L 132.67,243.67 L 132.67,245.67 L 132.67,246.33 L 133.33,245.67 L 136,238.33 L 138.67,233.67 L 140.67,231 L 142,231 L 142.67,233 L 143.33,237.67 L 144,239 L 144,240.33" fill="none" stroke="#2959aa" stroke-width="2"></path><path d="M 153.33,217.67 L 155.33,226.33 L 156,233 L 154,240.33 L 151.33,246.33 L 150,249.67 L 149.33,251" fill="none" stroke="#2959aa" stroke-width="2"></path><path d="M 160.67,240.33 L 166.67,240.33 L 170.67,240.33 L 174.67,239 L 177.33,237.67" fill="none" stroke="#2959aa" stroke-width="2"></path><path d="M 168,229 L 167.33,233.67 L 167.33,239.67 L 168,247 L 170,250.33 L 172,251" fill="none" stroke="#2959aa" stroke-width="2"></path><path d="M 180.67,230.33 L 180,235 L 180,239.67 L 180,243 L 180,244.33 L 180,245 L 180,243.67 L 180.67,240.33 L 182,235.67 L 184,233 L 184.67,232.33 L 186,232.33 L 187.33,235.67 L 188,240.33 L 188,244.33 L 188.67,249 L 188.67,250.33 L 188,251" fill="none" stroke="#2959aa" stroke-width="2"></path></svg>